<?xml version="1.0" encoding="UTF-8"?>
<svg version="1.1" xmlns="http://www.w3.org/2000/svg" width="512" height="512">
<path d="M0 0 C0.98451141 0.00021149 1.96902283 0.00042297 2.98336792 0.00064087 C19.34837212 0.03559856 35.11866056 1.0418182 51.1875 4.375 C52.52627197 4.64787842 52.52627197 4.64787842 53.89208984 4.92626953 C71.50410924 8.64403028 89.85190474 13.90304352 105.69921875 22.5390625 C108.17761601 23.63004678 108.17761601 23.63004678 110.69921875 22.6796875 C111.52035156 22.24914062 112.34148437 21.81859375 113.1875 21.375 C114.42886719 20.77171875 114.42886719 20.77171875 115.6953125 20.15625 C116.55898438 19.7334375 117.42265625 19.310625 118.3125 18.875 C127.90640625 14.52816312 138.18273327 12.78646383 148.41015625 16.09375 C156.73931631 19.81699689 161.83739536 26.15135852 165.30859375 34.45703125 C166.69832181 39.07092843 167.11078928 43.62775429 166.1875 48.375 C164.3404928 51.53405805 162.5540573 52.98194181 159.1875 54.375 C159.95449219 54.99761719 160.72148437 55.62023438 161.51171875 56.26171875 C177.636097 69.59490981 192.94172191 84.36216995 205.1875 101.375 C206.03926801 102.52164872 206.89215463 103.66746725 207.74609375 104.8125 C213.79414558 113.00567366 219.15483588 121.52667762 224.1875 130.375 C224.55198242 131.00680176 224.91646484 131.63860352 225.29199219 132.28955078 C244.35900596 165.60213133 256.18872098 205.6850157 256.390625 244.16796875 C256.39763931 245.06850983 256.40465363 245.9690509 256.41188049 246.8968811 C256.42927902 249.78547226 256.4357324 252.67385837 256.4375 255.5625 C256.43851212 257.04355728 256.43851212 257.04355728 256.43954468 258.55453491 C256.42379657 273.04588264 255.97091075 287.11520251 253.1875 301.375 C253.02652832 302.27202637 252.86555664 303.16905273 252.69970703 304.09326172 C244.80944853 347.69811969 225.11985057 388.83490471 196.1875 422.375 C195.55328125 423.12007813 194.9190625 423.86515625 194.265625 424.6328125 C182.45448485 438.13779833 169.70389772 450.80918743 155.1875 461.375 C154.03755169 462.23149066 152.88781411 463.08826433 151.73828125 463.9453125 C143.54660474 469.9859414 135.03104922 475.34505071 126.1875 480.375 C125.55569824 480.73948242 124.92389648 481.10396484 124.27294922 481.47949219 C101.70426062 494.39705934 76.91061355 502.92859879 51.5 508.125 C50.52740234 508.32391846 49.55480469 508.52283691 48.55273438 508.7277832 C32.52953822 511.82994851 16.85046081 512.75112349 0.5625 512.6875 C-0.40705627 512.68567719 -1.37661255 512.68385437 -2.37554932 512.68197632 C-16.70729259 512.63662737 -30.72145512 512.21795422 -44.8125 509.375 C-45.71436035 509.19807617 -46.6162207 509.02115234 -47.54541016 508.83886719 C-54.01849895 507.53998713 -60.42138488 506.02842874 -66.8125 504.375 C-67.63250488 504.16536621 -68.45250977 503.95573242 -69.29736328 503.73974609 C-102.48838707 495.05942801 -132.95059041 478.49871795 -159.8125 457.375 C-160.76769531 456.62605469 -161.72289062 455.87710937 -162.70703125 455.10546875 C-178.35853563 442.34718212 -193.00505388 427.77886366 -204.8125 411.375 C-205.66426801 410.22835128 -206.51715463 409.08253275 -207.37109375 407.9375 C-213.41914558 399.74432634 -218.77983588 391.22332238 -223.8125 382.375 C-224.17698242 381.74319824 -224.54146484 381.11139648 -224.91699219 380.46044922 C-238.34046007 357.00788551 -246.69349623 331.25919353 -252.125 304.875 C-252.27243652 304.15981201 -252.41987305 303.44462402 -252.57177734 302.70776367 C-255.50659885 287.37134295 -256.21998514 272.14142382 -256.1875 256.5625 C-256.18695618 255.57665924 -256.18641235 254.59081848 -256.18585205 253.57510376 C-256.14449259 237.20784135 -255.17789509 221.44130394 -251.8125 205.375 C-251.59819336 204.3422998 -251.38388672 203.30959961 -251.16308594 202.24560547 C-238.52173269 143.37222888 -204.01117023 86.78803805 -154.8125 51.375 C-153.66585128 50.52323199 -152.52003275 49.67034537 -151.375 48.81640625 C-143.18182634 42.76835442 -134.66082238 37.40766412 -125.8125 32.375 C-125.18069824 32.01051758 -124.54889648 31.64603516 -123.89794922 31.27050781 C-100.44538551 17.84703993 -74.69669353 9.49400377 -48.3125 4.0625 C-47.59731201 3.91506348 -46.88212402 3.76762695 -46.14526367 3.61572266 C-30.80843891 0.68082383 -15.57921321 -0.03102088 0 0 Z " fill="#3392F7" transform="translate(255.8125,-0.375)"/>
<path d="M0 0 C1.47676712 0.00031723 1.47676712 0.00031723 2.98336792 0.00064087 C19.34837212 0.03559856 35.11866056 1.0418182 51.1875 4.375 C52.52627197 4.64787842 52.52627197 4.64787842 53.89208984 4.92626953 C71.50410924 8.64403028 89.85190474 13.90304352 105.69921875 22.5390625 C108.17761601 23.63004678 108.17761601 23.63004678 110.69921875 22.6796875 C111.52035156 22.24914062 112.34148437 21.81859375 113.1875 21.375 C114.42886719 20.77171875 114.42886719 20.77171875 115.6953125 20.15625 C116.55898438 19.7334375 117.42265625 19.310625 118.3125 18.875 C127.90640625 14.52816312 138.18273327 12.78646383 148.41015625 16.09375 C156.73931631 19.81699689 161.83739536 26.15135852 165.30859375 34.45703125 C166.69832181 39.07092843 167.11078928 43.62775429 166.1875 48.375 C164.3404928 51.53405805 162.5540573 52.98194181 159.1875 54.375 C159.95449219 54.99761719 160.72148437 55.62023438 161.51171875 56.26171875 C177.636097 69.59490981 192.94172191 84.36216995 205.1875 101.375 C206.03926801 102.52164872 206.89215463 103.66746725 207.74609375 104.8125 C213.79414558 113.00567366 219.15483588 121.52667762 224.1875 130.375 C224.55198242 131.00680176 224.91646484 131.63860352 225.29199219 132.28955078 C244.35870577 165.60160685 256.18966873 205.68542072 256.390625 244.16796875 C256.39745804 245.06928024 256.40429108 245.97059174 256.41133118 246.8992157 C256.42827885 249.78701581 256.43465013 252.67465315 256.4375 255.5625 C256.44050613 257.0350827 256.44050613 257.0350827 256.443573 258.53741455 C256.45084275 273.04695018 255.86476437 287.07948638 253.1875 301.375 C252.85274756 303.37476296 252.5187471 305.37465341 252.1875 307.375 C251.8575 306.715 251.5275 306.055 251.1875 305.375 C228.98930722 309.25968374 210.21871681 317.21367939 193.1875 332.375 C192.40117187 333.0659375 191.61484375 333.756875 190.8046875 334.46875 C182.76146619 342.0076109 176.51496679 350.99967313 170.02734375 359.86376953 C162.66900501 369.907277 155.2439871 379.87751521 147.1875 389.375 C146.73890625 389.97828125 146.2903125 390.5815625 145.828125 391.203125 C141.06625331 397.0231904 133.14509019 398.4683181 126.1875 400.375 C124.85912109 400.74818359 124.85912109 400.74818359 123.50390625 401.12890625 C92.50361509 408.22177287 56.67787967 397.57504498 30.1875 381.375 C-1.6982046 360.26862343 -20.86717955 328.40821584 -28.56616211 291.32397461 C-29.86083066 284.69160171 -30.5697871 278.13455433 -30.8125 271.375 C-29.45125 270.5396875 -29.45125 270.5396875 -28.0625 269.6875 C-22.41874033 265.67174793 -19.40268877 261.05379283 -17.8125 254.375 C-16.48540853 244.7391619 -19.55966965 238.25424553 -24.8125 230.375 C-23.69875 229.385 -23.69875 229.385 -22.5625 228.375 C-17.51669256 223.3005232 -15.39754347 217.39552169 -14.8125 210.375 C-13.99007812 210.28863281 -13.16765625 210.20226562 -12.3203125 210.11328125 C0.21942547 208.53495395 9.42235221 204.17491791 17.625 194.5 C18.140625 193.79875 18.65625 193.0975 19.1875 192.375 C22.23472251 193.51770844 25.07507632 194.84074091 27.9375 196.375 C35.02207419 199.94392083 43.39765253 201.71027673 51.25390625 199.8984375 C53.3125 199.4375 53.3125 199.4375 57.1875 199.375 C58.94760426 200.85256121 60.14826615 202.4907382 61.515625 204.3359375 C68.03769597 212.29042593 79.29164615 217.25963944 89.1875 219.375 C108.10599031 220.84162804 122.85945893 217.95385814 137.8125 205.8125 C145.33992292 198.84562985 150.82700414 189.3632139 153.1875 179.375 C153.36796875 178.65441406 153.5484375 177.93382812 153.734375 177.19140625 C156.30533084 161.21158589 153.65192627 146.63391975 144.1875 133.375 C122.81131811 106.41085355 88.37646929 88.95513933 57.1875 76.375 C56.00929688 75.88386719 54.83109375 75.39273438 53.6171875 74.88671875 C-5.670028 50.88951248 -74.76798862 54.99880231 -133.26220703 78.77734375 C-155.93649753 88.45420956 -176.61942334 100.94200531 -195.8125 116.375 C-196.83601563 117.19226563 -197.85953125 118.00953125 -198.9140625 118.8515625 C-211.69442605 129.25663804 -224.11835425 141.00036501 -233.8125 154.375 C-234.1425 153.715 -234.4725 153.055 -234.8125 152.375 C-233.78918899 149.96576327 -232.70416548 147.69310133 -231.5 145.375 C-231.13680664 144.66657959 -230.77361328 143.95815918 -230.39941406 143.22827148 C-229.21575732 140.93737953 -228.01599158 138.65552759 -226.8125 136.375 C-226.42594238 135.63523926 -226.03938477 134.89547852 -225.64111328 134.13330078 C-217.34769146 118.35396541 -207.46373419 103.88180112 -195.8125 90.375 C-195.17828125 89.62992187 -194.5440625 88.88484375 -193.890625 88.1171875 C-182.07948485 74.61220167 -169.32889772 61.94081257 -154.8125 51.375 C-153.66255169 50.51850934 -152.51281411 49.66173567 -151.36328125 48.8046875 C-143.17160474 42.7640586 -134.65604922 37.40494929 -125.8125 32.375 C-125.18069824 32.01051758 -124.54889648 31.64603516 -123.89794922 31.27050781 C-100.44538551 17.84703993 -74.69669353 9.49400377 -48.3125 4.0625 C-47.59731201 3.91506348 -46.88212402 3.76762695 -46.14526367 3.61572266 C-30.80843891 0.68082383 -15.57921321 -0.03102088 0 0 Z " fill="#232E7A" transform="translate(255.8125,-0.375)"/>
<path d="M0 0 C0.89750977 0.02078613 1.79501953 0.04157227 2.71972656 0.06298828 C11.25123774 0.29306299 19.62340176 1.10066161 28.0625 2.375 C28.82449707 2.48884033 29.58649414 2.60268066 30.37158203 2.7199707 C38.53422363 4.0619097 45.60879995 6.3557369 52.5625 10.9375 C53.14257812 11.31938477 53.72265625 11.70126953 54.3203125 12.09472656 C61.77214265 17.0744793 68.94348211 22.47784638 76 28 C76.59425781 28.46212891 77.18851562 28.92425781 77.80078125 29.40039062 C79.24057609 30.55188931 80.62627522 31.77043152 82 33 C82 33.66 82 34.32 82 35 C82.58136719 35.25265625 83.16273438 35.5053125 83.76171875 35.765625 C93.42729605 41.09603063 98.68808176 53.40988089 102.17578125 63.3515625 C103.16354056 67.72391887 103.34381987 71.78244466 103.3125 76.25 C103.30686035 77.09119385 103.3012207 77.9323877 103.29541016 78.79907227 C103.16965173 85.25819943 102.44322965 90.97088957 100 97 C99.60941406 97.97066406 99.21882813 98.94132812 98.81640625 99.94140625 C92.05007197 114.95001741 80.38434336 124.5166409 65.19140625 130.2734375 C52.96048662 134.32860871 36.50335043 133.72500593 25 128 C18.0003397 124.47409064 8.62171345 119.2434269 5 112 C3.94941406 112.09539062 2.89882813 112.19078125 1.81640625 112.2890625 C-9.61377438 113.23453871 -17.52485724 112.71400869 -27.73828125 107.0234375 C-30.19362748 105.72515922 -30.19362748 105.72515922 -34 106 C-35.38076962 107.65018808 -36.75659805 109.30487624 -38.1015625 110.984375 C-43.81225833 117.04758292 -52.04086141 121.74090702 -60.42578125 122.10546875 C-62.62264302 122.12255166 -64.80519526 122.08958387 -67 122 C-66.9175 122.99 -66.835 123.98 -66.75 125 C-66.76471222 132.28255086 -71.33586605 137.81762894 -76 143 C-75.401875 143.680625 -74.80375 144.36125 -74.1875 145.0625 C-69.14843285 151.82924732 -68.00309124 157.66950954 -69 166 C-70.76124873 173.60992374 -74.44747109 178.71674517 -81 183 C-81.66 183 -82.32 183 -83 183 C-79.80157855 204.30653273 -75.60943288 223.62570098 -66 243 C-65.69223633 243.62358398 -65.38447266 244.24716797 -65.06738281 244.88964844 C-50.10290015 274.54359084 -23.0302791 295.33266171 8 306 C13.26394871 307.66196394 18.59603589 308.89149454 24 310 C25.04510742 310.22429687 25.04510742 310.22429687 26.11132812 310.453125 C43.57795878 314.1269766 60.64536316 314.34395672 78 310 C79.81155358 309.59985764 81.62391552 309.20333449 83.4375 308.8125 C84.613125 308.544375 85.78875 308.27625 87 308 C83.44585909 312.63115331 79.88980075 315.83950362 75 319 C74.00444092 319.64727051 74.00444092 319.64727051 72.98876953 320.30761719 C49.4410148 335.30840909 20.36502628 341.02374792 -7 335 C-8.20011719 334.74347656 -9.40023437 334.48695313 -10.63671875 334.22265625 C-25.33089806 330.90222089 -39.33762637 325.41726645 -53.37475586 320.0378418 C-100.9208706 301.76718678 -100.9208706 301.76718678 -151.1015625 294.73046875 C-173.09852878 294.20307607 -173.09852878 294.20307607 -177.98828125 290.80859375 C-180.35174685 288.29463252 -182.19263884 285.87994415 -183.89111328 282.88037109 C-185.11961665 280.7971626 -186.50419255 278.91538213 -187.96484375 276.98828125 C-197.93562613 263.73404105 -206.05068525 249.4947334 -212 234 C-212.25378418 233.35434082 -212.50756836 232.70868164 -212.76904297 232.04345703 C-222.9973159 205.62199998 -225.49186407 175.61131887 -219 148 C-218.70653694 146.65766005 -218.41357308 145.31521088 -218.12109375 143.97265625 C-212.94561143 121.06373961 -202.62131631 99.39528822 -188 81 C-187.57783203 80.46503906 -187.15566406 79.93007812 -186.72070312 79.37890625 C-175.73201041 65.59759839 -163.28458891 53.33445876 -149 43 C-148.14897705 42.3824585 -148.14897705 42.3824585 -147.28076172 41.75244141 C-124.76680112 25.63456488 -100.06880338 14.66920306 -73.38232422 7.63623047 C-71.25687891 7.06860283 -69.14607925 6.46660807 -67.03515625 5.84765625 C-45.18309452 -0.22873028 -22.52135259 -0.58144036 0 0 Z " fill="#75B5F9" transform="translate(308,88)"/>
<path d="M0 0 C-3.89294758 1.29764919 -6.90939289 0.43180727 -10.8125 -0.375 C-12.21474227 -0.65415606 -13.61708468 -0.93280965 -15.01953125 -1.2109375 C-15.70039795 -1.34669189 -16.38126465 -1.48244629 -17.08276367 -1.62231445 C-72.47087662 -12.53348353 -135.02775048 1.49307148 -182 32 C-221.89870615 58.87075756 -252.18183909 97.33857793 -261.8125 145.1875 C-269.52664766 186.0958588 -259.88918043 228.32709571 -236.63110352 262.65209961 C-231.28649521 270.31856725 -225.40391103 277.45250304 -219.203125 284.4375 C-217 287 -217 287 -217 288 C-217.65033203 288.03963867 -218.30066406 288.07927734 -218.97070312 288.12011719 C-245.96705843 289.81794217 -272.68415082 292.52533324 -299 299 C-299.7017334 299.16951172 -300.4034668 299.33902344 -301.12646484 299.51367188 C-304.42613021 300.31108411 -307.71820432 301.13191211 -311 302 C-328.8734861 273.99658173 -340.60804096 244.06772934 -347.3125 211.5 C-347.45993652 210.78481201 -347.60737305 210.06962402 -347.75927734 209.33276367 C-350.69409885 193.99634295 -351.40748514 178.76642382 -351.375 163.1875 C-351.37445618 162.20165924 -351.37391235 161.21581848 -351.37335205 160.20010376 C-351.33199259 143.83284135 -350.36539509 128.06630394 -347 112 C-346.78569336 110.9672998 -346.57138672 109.93459961 -346.35058594 108.87060547 C-343.3410425 94.854544 -339.02519034 81.41025558 -333.79882812 68.06884766 C-333.1787143 66.46284383 -332.61637021 64.83448067 -332.078125 63.19921875 C-330.5899925 60.16364412 -328.45320999 58.31201804 -326 56 C-324.6649327 54.55351129 -323.33024898 53.10661768 -322.00634766 51.64990234 C-311.34846227 39.93235571 -300.52477006 28.8105232 -287.79296875 19.33544922 C-285.95592428 17.96717127 -284.13411069 16.58014471 -282.3125 15.19140625 C-273.88577324 8.82540222 -265.19096417 3.19438619 -256 -2 C-255.36964844 -2.36303223 -254.73929687 -2.72606445 -254.08984375 -3.10009766 C-176.35834249 -47.59941921 -76.83321397 -45.14727937 0 0 Z " fill="#3492F7" transform="translate(351,93)"/>
<path d="M0 0 C3.23939656 1.73539102 5.42321134 3.42321134 8 6 C10.27879317 6.2285709 10.27879317 6.2285709 12.91796875 6.08984375 C13.91763672 6.06744629 14.91730469 6.04504883 15.94726562 6.02197266 C17.01654297 5.99409668 18.08582031 5.9662207 19.1875 5.9375 C41.7764047 5.68065628 62.20723959 12.47149306 81 25 C81.38818359 27.52416992 81.38818359 27.52416992 81.3984375 30.73046875 C81.40431885 31.91568115 81.4102002 33.10089355 81.41625977 34.32202148 C81.39583618 36.23543335 81.39583618 36.23543335 81.375 38.1875 C81.36847412 39.4856665 81.36194824 40.78383301 81.35522461 42.12133789 C81.19454842 53.89104854 79.93281646 65.39531809 78 77 C77.80277344 78.19753906 77.60554688 79.39507812 77.40234375 80.62890625 C77.26957031 81.41136719 77.13679688 82.19382812 77 83 C76.67 82.34 76.34 81.68 76 81 C53.80180722 84.88468374 35.03121681 92.83867939 18 108 C17.21367187 108.6909375 16.42734375 109.381875 15.6171875 110.09375 C7.57396619 117.6326109 1.32746679 126.62467313 -5.16015625 135.48876953 C-12.51849499 145.532277 -19.9435129 155.50251521 -28 165 C-28.44859375 165.60328125 -28.8971875 166.2065625 -29.359375 166.828125 C-34.12124669 172.6481904 -42.04240981 174.0933181 -49 176 C-49.88558594 176.24878906 -50.77117187 176.49757813 -51.68359375 176.75390625 C-82.68388491 183.84677287 -118.50962033 173.20004498 -145 157 C-176.31366437 136.27227891 -195.52291379 105.08608384 -203.375 68.6875 C-203.55506592 67.85637695 -203.73513184 67.02525391 -203.9206543 66.16894531 C-205.12624573 60.25249147 -205.12624573 60.25249147 -204 58 C-203.36835938 58.52207031 -202.73671875 59.04414063 -202.0859375 59.58203125 C-199.6255882 61.6063244 -197.15875411 63.62229749 -194.68554688 65.63085938 C-193.56057342 66.54465589 -192.43687622 67.4600258 -191.31445312 68.37695312 C-173.86808255 82.58585287 -154.94497651 95.47436325 -131.75 95.25 C-130.72656494 95.24178223 -129.70312988 95.23356445 -128.64868164 95.22509766 C-103.91686922 94.85887545 -86.31854705 83.75741592 -69 67 C-68.32066406 66.34902344 -67.64132812 65.69804687 -66.94140625 65.02734375 C-61.70770854 59.91020946 -56.9861219 54.36245509 -52.27734375 48.765625 C-33.94686488 27.0492998 -33.94686488 27.0492998 -23 20 C-22.34 20 -21.68 20 -21 20 C-21.04640625 19.41992188 -21.0928125 18.83984375 -21.140625 18.2421875 C-21.40259557 12.57239594 -20.84022146 9.46296007 -17 5 C-11.39007077 0.05791949 -7.39606991 -0.85077491 0 0 Z " fill="#3342AE" transform="translate(431,224)"/>
<path d="M0 0 C0.88171875 -0.01611328 1.7634375 -0.03222656 2.671875 -0.04882812 C11.60210776 -0.05537522 19.22234967 2.32473243 27.1875 6.3125 C28.19941406 6.8075 29.21132813 7.3025 30.25390625 7.8125 C32.625 9.3125 32.625 9.3125 33.625 12.3125 C34.94623886 13.00282608 36.2816915 13.66616844 37.625 14.3125 C46.35088701 22.01287039 53.73308403 34.75904087 54.82617188 46.46728516 C54.92886564 48.83679286 54.95412646 51.19085416 54.9375 53.5625 C54.93186035 54.40369385 54.9262207 55.2448877 54.92041016 56.11157227 C54.79465173 62.57069943 54.06822965 68.28338957 51.625 74.3125 C51.23441406 75.28316406 50.84382812 76.25382812 50.44140625 77.25390625 C43.67507197 92.26251741 32.00934336 101.8291409 16.81640625 107.5859375 C4.58548662 111.64110871 -11.87164957 111.03750593 -23.375 105.3125 C-30.3746603 101.78659064 -39.75328655 96.5559269 -43.375 89.3125 C-44.42558594 89.40789062 -45.47617187 89.50328125 -46.55859375 89.6015625 C-57.98877438 90.54703871 -65.89985724 90.02650869 -76.11328125 84.3359375 C-78.56862748 83.03765922 -78.56862748 83.03765922 -82.375 83.3125 C-83.75576962 84.96268808 -85.13159805 86.61737624 -86.4765625 88.296875 C-92.18725833 94.36008292 -100.41586141 99.05340702 -108.80078125 99.41796875 C-110.99764302 99.43505166 -113.18019526 99.40208387 -115.375 99.3125 C-115.2925 100.3025 -115.21 101.2925 -115.125 102.3125 C-115.13971222 109.59505086 -119.71086605 115.13012894 -124.375 120.3125 C-123.776875 120.993125 -123.17875 121.67375 -122.5625 122.375 C-117.52343285 129.14174732 -116.37809124 134.98200954 -117.375 143.3125 C-119.15752205 151.01434057 -122.80200993 155.97070839 -129.375 160.3125 C-135.2860089 163.69712677 -141.6905473 164.28867181 -148.375 163.3125 C-155.19779404 161.10368179 -160.6160701 157.47813749 -164.375 151.3125 C-167.31505363 145.30942471 -168.46840462 138.93367241 -167.375 132.3125 C-165.31186135 126.69617812 -162.38499476 121.76804974 -158.375 117.3125 C-158.973125 116.631875 -159.57125 115.95125 -160.1875 115.25 C-165.16336734 108.56812101 -166.5557767 102.56658327 -165.375 94.3125 C-162.99929802 86.75644787 -158.62295365 81.99458934 -152.375 77.3125 C-152.69984375 76.36503906 -152.69984375 76.36503906 -153.03125 75.3984375 C-156.65944566 63.74117922 -157.00375366 52.3541554 -151.375 41.3125 C-145.31799153 30.74723712 -136.8970431 24.15318103 -125.375 20.3125 C-115.12512515 19.41338817 -104.47994922 19.01767688 -95.375 24.3125 C-94.66730469 24.6940625 -93.95960938 25.075625 -93.23046875 25.46875 C-91.58857144 26.37551775 -89.97717561 27.33726267 -88.375 28.3125 C-88.148125 27.755625 -87.92125 27.19875 -87.6875 26.625 C-83.03423435 18.4263891 -74.09637762 13.21962587 -65.375 10.3125 C-62.0872924 10.08477171 -58.794792 10.12734338 -55.5 10.125 C-54.60152344 10.11275391 -53.70304687 10.10050781 -52.77734375 10.08789062 C-48.09297879 10.07751168 -44.69218475 10.35506677 -40.375 12.3125 C-37.45137369 12.64916 -35.98002954 12.68142045 -33.453125 11.140625 C-32.84984375 10.61984375 -32.2465625 10.0990625 -31.625 9.5625 C-22.26394537 2.10180984 -11.73152592 -0.04250553 0 0 Z " fill="#C7E1FC" transform="translate(356.375,110.6875)"/>
<path d="M0 0 C2.77117012 0.4994936 5.54862673 0.93397688 8.33056641 1.36914062 C35.81897184 5.97542815 62.02027501 16.72152453 87.93017578 26.66088867 C109.90094788 35.07708705 129.59636703 40.6995555 153.27978516 40.54101562 C154.57013672 40.53650391 155.86048828 40.53199219 157.18994141 40.52734375 C160.34493891 40.51565857 163.49983653 40.49927607 166.65478516 40.47851562 C163.56199648 42.17633865 160.60909344 43.09846331 157.18212891 43.91601562 C156.11671875 44.17125 155.05130859 44.42648437 153.95361328 44.68945312 C152.844375 44.94984375 151.73513672 45.21023438 150.59228516 45.47851562 C148.9690332 45.86910156 148.9690332 45.86910156 147.31298828 46.26757812 C131.61062835 49.99771282 116.7390551 51.65804191 100.59228516 51.66601562 C98.67512695 51.68438477 98.67512695 51.68438477 96.71923828 51.703125 C81.04264362 51.72660467 65.99746806 49.6600777 50.73999023 46.12939453 C48.45918507 45.60164135 46.17559853 45.08773662 43.89111328 44.57617188 C35.47036841 42.67517421 27.11459743 40.59468283 18.78588867 38.32446289 C4.31819948 34.41564862 -16.28864156 30.3429269 -30.34521484 37.47851562 C-36.52485512 41.37027381 -39.25275043 45.75999909 -40.89599609 52.85742188 C-43.32136438 67.00891858 -39.40935144 81.7227965 -31.34521484 93.47851562 C-26.19266694 100.16710612 -20.64283601 105.23450899 -13.34521484 109.47851562 C-16.87714066 110.65582423 -17.39963198 110.30678744 -20.67724609 108.84570312 C-21.54704102 108.45858154 -22.41683594 108.07145996 -23.31298828 107.67260742 C-24.25174805 107.23730713 -25.19050781 106.80200684 -26.15771484 106.35351562 C-27.13385742 105.90339111 -28.11 105.4532666 -29.11572266 104.98950195 C-65.08203281 88.02398935 -99.76491791 61.61608081 -123.13037109 29.1640625 C-124.47360279 27.30038251 -125.84624571 25.46025927 -127.22021484 23.61914062 C-128.15936649 22.34431406 -129.09691626 21.06830556 -130.03271484 19.79101562 C-130.46801514 19.20199463 -130.90331543 18.61297363 -131.35180664 18.00610352 C-134.34521484 13.82881309 -134.34521484 13.82881309 -134.34521484 10.47851562 C-131.11624004 9.7068772 -127.88699764 8.93636402 -124.65771484 8.16601562 C-123.76503906 7.95267578 -122.87236328 7.73933594 -121.95263672 7.51953125 C-120.07346443 7.07147238 -118.19354057 6.62655723 -116.31298828 6.18432617 C-114.33903664 5.71487124 -112.36822626 5.23200018 -110.40087891 4.7355957 C-100.84333723 2.38859406 -91.22521027 1.00183214 -81.47021484 -0.20898438 C-80.58714661 -0.31887695 -79.70407837 -0.42876953 -78.79425049 -0.54199219 C-52.82060392 -3.69418736 -25.85445251 -4.69290903 0 0 Z " fill="#1380E2" transform="translate(175.34521484375,383.521484375)"/>
<path d="M0 0 C0.88171875 -0.01611328 1.7634375 -0.03222656 2.671875 -0.04882812 C11.60210776 -0.05537522 19.22234967 2.32473243 27.1875 6.3125 C28.19941406 6.8075 29.21132813 7.3025 30.25390625 7.8125 C32.625 9.3125 32.625 9.3125 33.625 12.3125 C34.95601049 12.98379225 36.28977812 13.64962389 37.625 14.3125 C39.765625 16.40625 39.765625 16.40625 41.875 18.8125 C42.58140625 19.6065625 43.2878125 20.400625 44.015625 21.21875 C45.625 23.3125 45.625 23.3125 45.625 25.3125 C36.625 22.3125 36.625 22.3125 34.0234375 21.23046875 C29.13138954 19.9090535 24.41987105 19.98376811 19.375 20 C18.38886719 19.98388672 17.40273438 19.96777344 16.38671875 19.95117188 C7.17537317 19.94510379 -0.40460993 22.29743072 -8.8125 25.9375 C-14.0411569 28.1871177 -17.93397011 29.43181159 -23.66015625 29.48828125 C-25.54057617 29.52405273 -25.54057617 29.52405273 -27.45898438 29.56054688 C-30.08382596 29.60307008 -32.70887257 29.63455919 -35.33398438 29.65429688 C-43.18249926 29.82657158 -49.35995382 30.73861057 -56.375 34.3125 C-57.12918213 34.68673096 -57.88336426 35.06096191 -58.66040039 35.4465332 C-59.91122622 36.07746424 -61.15556 36.72156089 -62.390625 37.3828125 C-67.81776355 39.92544828 -72.5463518 40.55447745 -78.484375 40.3671875 C-80.05988686 40.34188281 -81.63540818 40.31716179 -83.2109375 40.29296875 C-85.66404643 40.24355431 -88.11664543 40.18772864 -90.56933594 40.12060547 C-103.95370268 39.71264742 -103.95370268 39.71264742 -116.375 44.3125 C-117.26574219 44.81910156 -118.15648437 45.32570312 -119.07421875 45.84765625 C-127.49512848 52.3163708 -132.9269685 60.98506013 -135.375 71.3125 C-135.71756833 74.75298983 -135.73637866 78.16961326 -135.75 81.625 C-135.96731244 90.16515467 -137.26901316 96.70926273 -141.375 104.3125 C-144.93515458 111.12471887 -146.18324764 116.5612726 -145.375 124.3125 C-144.88 125.3025 -144.88 125.3025 -144.375 126.3125 C-143.89993107 134.215089 -143.59184194 141.72000209 -146.640625 149.140625 C-148.07126932 153.37167948 -148.13465902 157.87862324 -148.375 162.3125 C-155.1004416 161.31830428 -159.54491528 157.57602584 -163.75 152.375 C-167.14537819 145.97601803 -168.43178438 139.48582427 -167.375 132.3125 C-165.32594582 126.69596901 -162.38071052 121.76328947 -158.375 117.3125 C-158.973125 116.631875 -159.57125 115.95125 -160.1875 115.25 C-165.16336734 108.56812101 -166.5557767 102.56658327 -165.375 94.3125 C-162.99929802 86.75644787 -158.62295365 81.99458934 -152.375 77.3125 C-152.69984375 76.36503906 -152.69984375 76.36503906 -153.03125 75.3984375 C-156.65944566 63.74117922 -157.00375366 52.3541554 -151.375 41.3125 C-145.31799153 30.74723712 -136.8970431 24.15318103 -125.375 20.3125 C-115.12512515 19.41338817 -104.47994922 19.01767688 -95.375 24.3125 C-94.66730469 24.6940625 -93.95960938 25.075625 -93.23046875 25.46875 C-91.58857144 26.37551775 -89.97717561 27.33726267 -88.375 28.3125 C-88.148125 27.755625 -87.92125 27.19875 -87.6875 26.625 C-83.03423435 18.4263891 -74.09637762 13.21962587 -65.375 10.3125 C-62.0872924 10.08477171 -58.794792 10.12734338 -55.5 10.125 C-54.60152344 10.11275391 -53.70304687 10.10050781 -52.77734375 10.08789062 C-48.09297879 10.07751168 -44.69218475 10.35506677 -40.375 12.3125 C-37.45137369 12.64916 -35.98002954 12.68142045 -33.453125 11.140625 C-32.84984375 10.61984375 -32.2465625 10.0990625 -31.625 9.5625 C-22.26394537 2.10180984 -11.73152592 -0.04250553 0 0 Z " fill="#A6CFFB" transform="translate(356.375,110.6875)"/>
<path d="M0 0 C10.23655299 0.18214507 20.28525042 6.67491704 27.75390625 13.23828125 C38.31026348 24.20780315 44.54953005 38.88409369 44.9375 54 C44.7761302 61.22496594 43.61712654 65.8354397 39.9375 72.0625 C34.53377779 77.18181578 28.92388952 78.58881207 21.5625 78.875 C15.15590427 78.68107062 10.53021933 77.41824064 5.5625 73.3125 C2.52168415 69.90310041 2.1633923 66.99855397 2.32470703 62.46118164 C2.56473837 60.29227428 3.01281309 58.29592318 3.5546875 56.18359375 C7.47146784 38.99063712 4.10267843 23.56005375 -4.6171875 8.49609375 C-5.65914223 5.72250949 -5.28910386 4.11131043 -4.4375 1.3125 C-3.4375 0.3125 -3.4375 0.3125 0 0 Z " fill="#A5CEFA" transform="translate(421.4375,135.6875)"/>
<path d="M0 0 C5.78814832 5.19066204 9.48604528 11.84597 10.5390625 19.578125 C10.65670114 23.40905276 10.7297249 26.32829067 9.03515625 29.8203125 C6.1993354 32.41787791 3.92048893 32.40430522 0.12890625 32.56640625 C-3.2734375 32.0078125 -3.2734375 32.0078125 -6.80859375 31.12890625 C-23.48269369 27.45371328 -38.25261678 29.44682429 -53.05859375 37.94140625 C-54.28642578 38.72644531 -54.28642578 38.72644531 -55.5390625 39.52734375 C-58.44314108 40.82128831 -59.90170531 40.60235869 -62.87109375 39.56640625 C-64.85349725 35.60159925 -64.35271116 31.28096424 -63.1875 27.1328125 C-58.23987374 13.97335841 -49.93080202 3.93586909 -37.22338867 -2.19384766 C-24.81320744 -7.79673551 -11.14867155 -8.54188404 0 0 Z " fill="#3292F7" transform="translate(411.87109375,20.43359375)"/>
<path d="M0 0 C4.85308929 0.03516731 9.01599057 1.50621855 13.5 3.25 C12.51 3.745 12.51 3.745 11.5 4.25 C11.89832031 5.14460937 12.29664063 6.03921875 12.70703125 6.9609375 C13.24248995 8.1821591 13.77762876 9.40352099 14.3125 10.625 C14.83457031 11.80835938 15.35664063 12.99171875 15.89453125 14.2109375 C19.26983241 22.43972104 20.98999207 29.770167 20.8125 38.6875 C20.80412109 39.60692383 20.79574219 40.52634766 20.78710938 41.47363281 C20.68720079 47.11447125 20.16833241 52.44407428 18.9609375 57.96484375 C17.86694507 63.3884503 17.74264031 67.64789296 20.125 72.6875 C22.80075748 75.57450149 24.70205012 76.38682957 28.5 77.25 C28.5 77.58 28.5 77.91 28.5 78.25 C19.70884766 78.81273379 12.5419672 79.07007335 5.5 73.25 C2.45918415 69.84060041 2.1008923 66.93605397 2.26220703 62.39868164 C2.50223837 60.22977428 2.95031309 58.23342318 3.4921875 56.12109375 C7.40896784 38.92813712 4.04017843 23.49755375 -4.6796875 8.43359375 C-5.72164223 5.66000949 -5.35160386 4.04881043 -4.5 1.25 C-3.5 0.25 -3.5 0.25 0 0 Z " fill="#75B4F7" transform="translate(421.5,135.75)"/>
<path d="M0 0 C7.99800583 1.20031235 7.99800583 1.20031235 15.28125 -1.546875 C16.29227038 1.48618613 16.4795035 3.71252739 16.53125 6.890625 C16.55703125 7.83808594 16.5828125 8.78554688 16.609375 9.76171875 C16.21308657 13.0122274 15.73028637 14.26790759 13.28125 16.453125 C8.20374166 17.76364636 4.37462816 17.26639581 -0.65625 16.015625 C-17.33034994 12.34043203 -32.10027303 14.33354304 -46.90625 22.828125 C-47.72480469 23.35148437 -48.54335938 23.87484375 -49.38671875 24.4140625 C-52.29079733 25.70800706 -53.74936156 25.48907744 -56.71875 24.453125 C-58.55551372 20.77959756 -57.95512993 16.28178642 -57.4375 12.27734375 C-57.2003125 11.67535156 -56.963125 11.07335937 -56.71875 10.453125 C-54.712877 9.72686064 -52.69501215 9.0261548 -50.64453125 8.4375 C-47.03480237 7.22301178 -43.69240335 5.56479496 -40.28125 3.890625 C-26.74098718 -2.5890111 -14.64296224 -2.26771539 0 0 Z " fill="#137FE1" transform="translate(405.71875,35.546875)"/>
<path d="M0 0 C4.98669007 2.49334503 8.49675474 5.99350949 11 11 C11.59057744 16.67862925 11.29370905 21.16922672 8 26 C4.00950931 29.92664284 0.88359358 32.15032079 -4.75 32.3125 C-9.6322451 32.25622052 -12.25873246 31.29587855 -16 28 C-20.39893104 23.00661882 -21.35676337 20.08984773 -21.28125 13.5390625 C-20.73016315 8.56397287 -17.99302299 5.87480597 -14.375 2.6875 C-9.71860985 -0.62098774 -5.60468123 -0.62082623 0 0 Z " fill="#74B2F6" transform="translate(431,224)"/>
<path d="M0 0 C3.64707515 1.68326546 4.70056415 3.52246638 6.4375 7.125 C7.3433137 12.76117416 6.69704746 17.34433039 3.4375 22.125 C0.72125568 25.15373261 -1.64380931 26.96287811 -5.75 27.6875 C-8.5625 27.125 -8.5625 27.125 -10.375 25.3125 C-12.69444491 21.03983833 -13.32069832 16.90420517 -12.5625 12.125 C-10.23215666 6.77778064 -6.32304162 0.30844105 0 0 Z " fill="#A5CEFB" transform="translate(435.5625,227.875)"/>
</svg>
